# xmcd
#
# Track frame offsets:
#	151
#	16366
#	32665
#	47358
#	62553
#	76208
#	93193
#	110420
#	125733
#	142044
#	161027
#	175640
#
# Disc length: 2504 seconds
#
# Revision: 0
# Processed by: cddbd v1.5PL3 Copyright (c) Steve Scherf et al.
# Submitted via: dBpowerAMP V4.0
#
DISCID=9209c60c
DTITLE=Harold Melvin and The Blue Notes - Forever Gold
DYEAR=2002
DGENRE=Soul
TTITLE0=The Love I Lost
TTITLE1=If You Don't Know Me By Now
TTITLE2=Bad Luck
TTITLE3=Satisfaction Guaranteed
TTITLE4=My Girl
TTITLE5=Hope That We can Be Together Soon
TTITLE6=Ain't No Stoppin' Us Now
TTITLE7=Wake Up Everybody
TTITLE8=For The LOve Of The Money
TTITLE9=Could It Be I'm Falling In Love
TTITLE10=I Miss You
TTITLE11=Get Ready
EXTD=album name is Foever Gold - Harold Melvin and The Blue Notes\nthis is a oldies album like motown is genre is soul, my name is devin morneo
EXTT0=
EXTT1=
EXTT2=
EXTT3=
EXTT4=
EXTT5=
EXTT6=
EXTT7=
EXTT8=
EXTT9=
EXTT10=
EXTT11=
PLAYORDER=
